<?xml version="1.0" standalone="no"?>
<!DOCTYPE svg PUBLIC "-//W3C//DTD SVG 20010904//EN"
 "http://www.w3.org/TR/2001/REC-SVG-20010904/DTD/svg10.dtd">
<svg version="1.0" xmlns="http://www.w3.org/2000/svg"
 width="192.000000pt" height="192.000000pt" viewBox="0 0 192.000000 192.000000"
 preserveAspectRatio="xMidYMid meet">
<metadata>
Created by potrace 1.11, written by Peter Selinger 2001-2013
</metadata>
<g transform="translate(0.000000,192.000000) scale(0.100000,-0.100000)"
fill="#000000" stroke="none">
<path d="M780 1905 c-195 -42 -348 -123 -489 -259 -391 -378 -385 -1011 13
-1384 80 -75 130 -109 232 -160 562 -282 1236 50 1365 673 55 263 -12 554
-176 764 -151 195 -356 321 -593 367 -92 18 -266 17 -352 -1z m319 -72 c0 -10
-6 -49 -12 -87 l-12 -69 -131 -2 -132 -3 -5 42 c-3 22 -9 60 -13 83 -8 51 -11
50 169 52 124 1 137 -1 136 -16z m456 -206 c34 -30 78 -76 99 -102 43 -52 48
-41 -50 -110 l-51 -36 -92 91 -92 91 48 68 c55 79 49 79 138 -2z m-1075 -18
l52 -72 -50 -43 c-28 -24 -67 -67 -87 -94 l-37 -50 -69 48 c-37 26 -69 51 -69
56 0 17 84 118 144 172 34 30 62 54 62 54 1 0 25 -32 54 -71z m680 -29 c200
-66 360 -229 422 -430 19 -61 23 -97 23 -195 -1 -104 -4 -130 -28 -198 -110
-314 -432 -500 -751 -432 -186 39 -362 176 -445 345 -93 191 -94 389 -2 575
88 177 230 294 421 345 99 27 264 22 360 -10z m690 -617 c0 -72 -2 -138 -6
-146 -4 -11 -15 -12 -57 -5 -29 4 -66 10 -82 13 l-31 5 0 130 0 129 46 7 c25
3 61 9 80 13 22 5 38 3 42 -3 4 -6 8 -70 8 -143z m-1680 113 l75 -12 1 -104
c1 -58 4 -115 8 -127 6 -20 2 -22 -66 -33 -40 -6 -79 -12 -87 -13 -22 -3 -29
36 -30 176 -1 96 2 127 12 126 6 0 46 -6 87 -13z m1457 -584 c75 -52 76 -50
-36 -163 -114 -113 -109 -112 -171 -29 l-52 70 28 23 c57 44 102 88 125 121
13 19 28 32 34 29 5 -4 38 -26 72 -51z m-1209 0 c17 -21 55 -58 86 -82 31 -25
56 -47 56 -50 -1 -3 -23 -36 -51 -73 l-50 -68 -61 48 c-34 26 -83 74 -110 106
l-48 59 67 49 c37 27 71 49 74 49 4 0 21 -17 37 -38z m688 -327 c7 -44 10 -82
8 -85 -3 -3 -69 -5 -147 -5 -164 0 -156 -6 -137 104 l11 68 127 -1 126 -1 12
-80z"/>
<path d="M875 1450 c-192 -40 -341 -180 -390 -367 -66 -253 81 -515 334 -594
350 -109 703 211 627 569 -56 264 -318 444 -571 392z m217 -60 c57 -18 156
-75 146 -85 -2 -2 -37 1 -78 6 -53 8 -93 21 -137 46 -35 19 -63 39 -63 44 0
15 65 10 132 -11z m-91 -71 l59 -32 0 -54 c0 -72 -10 -87 -72 -111 -92 -36
-94 -36 -152 -3 -75 43 -79 50 -71 115 8 64 14 70 86 95 73 26 82 26 150 -10z
m-274 -46 c-3 -10 -8 -39 -12 -65 -5 -39 -17 -60 -62 -113 -30 -36 -63 -65
-73 -65 -35 0 -50 12 -50 39 0 34 49 133 90 184 27 31 37 37 71 37 34 0 40 -3
36 -17z m624 -88 c30 -51 36 -75 20 -75 -9 0 -91 141 -91 156 0 16 44 -35 71
-81z m-210 -131 c66 -50 67 -53 46 -164 l-12 -65 -65 -32 c-36 -18 -73 -33
-84 -33 -10 0 -45 21 -78 48 l-60 47 6 66 c11 125 10 124 85 152 36 14 74 26
84 26 10 1 45 -20 78 -45z m244 -6 c27 -21 28 -23 22 -107 -7 -112 -20 -142
-71 -169 -23 -12 -45 -22 -51 -22 -5 0 -23 16 -39 36 l-28 36 16 86 c13 75 20
90 53 124 43 44 59 47 98 16z m-816 -75 c16 -16 43 -55 61 -89 31 -60 31 -62
17 -115 -10 -43 -18 -55 -35 -57 -19 -3 -27 7 -53 62 -26 56 -48 150 -49 209
0 25 26 21 59 -10z m350 -199 c50 -39 70 -61 67 -72 -3 -10 -8 -34 -12 -55 -8
-44 -20 -53 -95 -62 l-57 -7 -71 53 c-77 58 -82 70 -57 139 13 36 14 37 147
59 4 1 39 -24 78 -55z m411 -63 c0 -13 -90 -111 -102 -111 -11 0 46 77 76 102
24 20 26 21 26 9z m-255 -170 c17 -7 16 -9 -12 -15 -45 -10 -189 -9 -205 1
-28 17 174 31 217 14z"/>
</g>
</svg>
